<svg width="117" height="50" viewBox="0 0 117 50" fill="none" xmlns="http://www.w3.org/2000/svg">
<path d="M61.134 10.42H64.356V16.324H66.606V10.42H69.846V25H66.606V18.628H64.356V25H61.134V10.42ZM75.3783 25.216C74.2863 25.216 73.4223 25.042 72.7863 24.694C72.1503 24.334 71.7003 23.812 71.4363 23.128C71.1843 22.432 71.0583 21.55 71.0583 20.482V10.42H74.2443V20.968C74.2443 21.556 74.3163 22.024 74.4603 22.372C74.6163 22.72 74.9223 22.894 75.3783 22.894C75.8343 22.894 76.1343 22.72 76.2783 22.372C76.4223 22.024 76.4943 21.556 76.4943 20.968V10.42H79.6983V20.482C79.6983 21.55 79.5663 22.432 79.3023 23.128C79.0383 23.812 78.5883 24.334 77.9523 24.694C77.3283 25.042 76.4703 25.216 75.3783 25.216ZM80.8484 10.42H83.1164L86.1044 17.44V10.42H88.7684V25H86.5904L83.6024 17.44V25H80.8484V10.42ZM93.8362 25.216C92.3962 25.216 91.3702 24.778 90.7582 23.902C90.1462 23.026 89.8402 21.784 89.8402 20.176V15.28C89.8402 13.636 90.1702 12.382 90.8302 11.518C91.5022 10.654 92.6302 10.222 94.2142 10.222C95.7382 10.222 96.8302 10.594 97.4902 11.338C98.1502 12.082 98.4802 13.132 98.4802 14.488V15.424H95.3302V14.236C95.3302 13.66 95.2642 13.228 95.1322 12.94C95.0002 12.64 94.7062 12.49 94.2502 12.49C93.7822 12.49 93.4762 12.652 93.3322 12.976C93.2002 13.3 93.1342 13.75 93.1342 14.326V21.076C93.1342 21.652 93.2182 22.108 93.3862 22.444C93.5662 22.768 93.8842 22.93 94.3402 22.93C95.1802 22.93 95.6002 22.3 95.6002 21.04V19.33H94.2862V17.44H98.4982V25H96.3742L96.1942 23.794C95.7382 24.742 94.9522 25.216 93.8362 25.216ZM99.6148 10.42H106.167V12.616H102.837V16.234H105.375V18.466H102.837V22.822H106.203V25H99.6148V10.42ZM106.766 10.42H110.78C112.376 10.42 113.582 10.702 114.398 11.266C115.214 11.83 115.622 12.832 115.622 14.272C115.622 15.244 115.496 16.018 115.244 16.594C114.992 17.17 114.524 17.62 113.84 17.944L115.838 25H112.508L110.906 18.466H109.988V25H106.766V10.42ZM110.888 16.612C111.536 16.612 111.986 16.444 112.238 16.108C112.502 15.76 112.634 15.244 112.634 14.56C112.634 13.9 112.514 13.408 112.274 13.084C112.034 12.748 111.62 12.58 111.032 12.58H109.988V16.612H110.888ZM65.256 40.216C63.672 40.216 62.544 39.802 61.872 38.974C61.212 38.134 60.882 36.928 60.882 35.356V30.1C60.882 28.492 61.212 27.28 61.872 26.464C62.532 25.636 63.66 25.222 65.256 25.222C66.78 25.222 67.86 25.588 68.496 26.32C69.132 27.052 69.45 28.09 69.45 29.434V30.694H66.3V29.236C66.3 28.672 66.24 28.24 66.12 27.94C66 27.64 65.712 27.49 65.256 27.49C64.8 27.49 64.5 27.652 64.356 27.976C64.212 28.288 64.14 28.726 64.14 29.29V36.148C64.14 36.724 64.212 37.168 64.356 37.48C64.512 37.78 64.812 37.93 65.256 37.93C65.7 37.93 65.982 37.78 66.102 37.48C66.234 37.168 66.3 36.724 66.3 36.148V34.618H69.45V35.878C69.45 37.246 69.132 38.314 68.496 39.082C67.86 39.838 66.78 40.216 65.256 40.216ZM74.4986 40.216C72.9266 40.216 71.8046 39.814 71.1326 39.01C70.4606 38.194 70.1246 36.994 70.1246 35.41V29.992C70.1246 28.408 70.4606 27.22 71.1326 26.428C71.8046 25.624 72.9266 25.222 74.4986 25.222C76.0826 25.222 77.2106 25.624 77.8826 26.428C78.5666 27.232 78.9086 28.42 78.9086 29.992V35.41C78.9086 36.994 78.5666 38.194 77.8826 39.01C77.2106 39.814 76.0826 40.216 74.4986 40.216ZM74.4986 37.93C74.9546 37.93 75.2546 37.78 75.3986 37.48C75.5426 37.168 75.6146 36.748 75.6146 36.22V29.2C75.6146 28.66 75.5426 28.24 75.3986 27.94C75.2546 27.64 74.9546 27.49 74.4986 27.49C74.0666 27.49 73.7786 27.646 73.6346 27.958C73.4906 28.258 73.4186 28.672 73.4186 29.2V36.22C73.4186 36.748 73.4846 37.168 73.6166 37.48C73.7486 37.78 74.0426 37.93 74.4986 37.93ZM79.9695 25.42H83.6595C84.9195 25.42 85.9035 25.576 86.6115 25.888C87.3195 26.2 87.8175 26.692 88.1055 27.364C88.4055 28.024 88.5555 28.912 88.5555 30.028V35.32C88.5555 36.448 88.4055 37.348 88.1055 38.02C87.8175 38.692 87.3195 39.19 86.6115 39.514C85.9155 39.838 84.9435 40 83.6955 40H79.9695V25.42ZM83.6955 37.768C84.1635 37.768 84.5055 37.702 84.7215 37.57C84.9495 37.426 85.0935 37.228 85.1535 36.976C85.2135 36.712 85.2435 36.328 85.2435 35.824V29.47C85.2435 29.002 85.2075 28.648 85.1355 28.408C85.0755 28.156 84.9315 27.97 84.7035 27.85C84.4875 27.73 84.1455 27.67 83.6775 27.67H83.1915V37.768H83.6955ZM89.6163 25.42H96.1683V27.616H92.8383V31.234H95.3763V33.466H92.8383V37.822H96.2043V40H89.6163V25.42ZM100.637 40.216C99.2451 40.216 98.2071 39.85 97.5231 39.118C96.8511 38.374 96.4911 37.198 96.4431 35.59L99.1971 35.176C99.2091 36.1 99.3171 36.766 99.5211 37.174C99.7371 37.57 100.055 37.768 100.475 37.768C101.015 37.768 101.285 37.414 101.285 36.706C101.285 36.142 101.153 35.656 100.889 35.248C100.637 34.84 100.235 34.402 99.6831 33.934L98.4231 32.836C97.7991 32.308 97.3131 31.75 96.9651 31.162C96.6291 30.562 96.4611 29.854 96.4611 29.038C96.4611 27.814 96.8211 26.872 97.5411 26.212C98.2731 25.552 99.2751 25.222 100.547 25.222C101.927 25.222 102.863 25.624 103.355 26.428C103.859 27.232 104.129 28.21 104.165 29.362L101.393 29.704C101.369 28.948 101.297 28.408 101.177 28.084C101.069 27.748 100.823 27.58 100.439 27.58C100.163 27.58 99.9471 27.7 99.7911 27.94C99.6471 28.168 99.5751 28.426 99.5751 28.714C99.5751 29.206 99.6831 29.62 99.8991 29.956C100.127 30.292 100.487 30.676 100.979 31.108L102.185 32.17C102.905 32.782 103.463 33.43 103.859 34.114C104.255 34.798 104.453 35.608 104.453 36.544C104.453 37.228 104.291 37.852 103.967 38.416C103.655 38.968 103.211 39.406 102.635 39.73C102.059 40.054 101.393 40.216 100.637 40.216Z" fill="#0176FF"/>
<path fill-rule="evenodd" clip-rule="evenodd" d="M25.3222 10.4318C22.2919 10.1436 19.1821 10.6781 16.4967 12.2457C13.6519 13.9064 11.4537 16.3991 10.039 19.3322C8.53671 22.4468 7.19594 26.1532 8.05522 29.8696C8.90303 33.5363 11.1248 37.3976 14.7904 39.0811C16.7029 39.9595 18.6565 39.6501 20.3758 39.2153C20.8897 39.0854 21.3775 38.9474 21.8482 38.8142L21.8484 38.8141L21.8486 38.8141C23.0535 38.4732 24.1465 38.164 25.279 38.1023C26.3359 38.0448 27.3716 38.2046 28.5165 38.3813L28.5166 38.3813C28.9329 38.4455 29.3635 38.512 29.8149 38.571C31.4139 38.7802 33.2073 38.8724 34.9193 38.0221C38.2342 36.3757 40.6679 33.177 41.6403 29.677C42.6107 26.1841 41.8707 22.4107 40.1545 19.3449C39.3145 17.8443 38.0702 16.7985 36.7786 15.954C36.133 15.5318 35.459 15.1496 34.8054 14.7868C34.6779 14.7161 34.5516 14.6463 34.4263 14.577C33.8991 14.2857 33.3902 14.0044 32.8936 13.7075C32.6387 13.5551 32.3801 13.3973 32.1175 13.2371C30.1371 12.0287 27.926 10.6795 25.3222 10.4318ZM17.5771 14.0963C19.8187 12.7877 22.4664 12.3127 25.1193 12.5651C27.198 12.7628 28.9608 13.8315 30.9947 15.0644C31.2563 15.223 31.5223 15.3842 31.794 15.5467C32.325 15.8642 32.8735 16.1672 33.4028 16.4598L33.4043 16.4606C33.5259 16.5277 33.6464 16.5943 33.7654 16.6604C34.4136 17.0202 35.0297 17.3707 35.6059 17.7474C36.7578 18.5006 37.6832 19.3172 38.2847 20.3916C39.7825 23.0674 40.3657 26.2594 39.5756 29.1034C38.7491 32.0785 36.6821 34.754 33.9661 36.1029C32.8575 36.6535 31.6131 36.6451 30.0929 36.4463C29.7547 36.402 29.3955 36.3464 29.0217 36.2884C28.2916 36.1753 27.5053 36.0534 26.7091 35.9909C26.8203 35.928 26.9271 35.8644 27.0296 35.8017C27.2481 35.6679 27.438 35.545 27.6141 35.4311C27.9426 35.2186 28.2229 35.0373 28.5504 34.8746C28.8463 34.7276 29.1632 34.5536 29.4532 34.3945L29.4535 34.3943L29.4537 34.3942L29.4545 34.3937L29.455 34.3935C29.6131 34.3067 29.7631 34.2244 29.8973 34.1532C30.3159 33.9313 30.6943 33.7531 31.0794 33.6337C31.4941 33.5052 31.9284 33.472 32.4996 33.4283C32.6071 33.4201 32.7196 33.4115 32.8376 33.4018C33.5148 33.3463 34.3734 33.2518 35.1745 32.8134C36.4836 32.0968 38.0457 30.9408 38.6368 29.1997C39.2182 27.4874 38.7562 25.6072 38.0529 24.2142C37.6352 23.3869 36.9931 22.7995 36.4126 22.3372C36.1631 22.1385 35.9418 21.9735 35.7366 21.8206C35.4078 21.5754 35.1204 21.3612 34.8252 21.089C34.5163 20.8041 34.1632 20.5297 33.8581 20.2926L33.8579 20.2925C33.7459 20.2055 33.6405 20.1235 33.5461 20.048C33.1585 19.7377 32.8624 19.4665 32.6422 19.1607C32.4001 18.8245 32.265 18.4178 32.0681 17.8248C32.0402 17.7409 32.0111 17.6531 31.9802 17.5613C31.7612 16.9097 31.4421 16.0247 30.6986 15.3675C30.13 14.865 29.4056 14.3712 28.6099 14.0576C27.8191 13.7459 26.8674 13.5789 25.9208 13.8769C25.2678 14.0825 24.8289 14.5193 24.527 14.9341C24.2529 15.3107 24.0385 15.7467 23.8719 16.0857L23.8427 16.1448C23.6514 16.5334 23.5127 16.8017 23.3606 16.9991C23.2236 17.1768 23.1412 17.209 23.095 17.22C22.9212 17.2616 22.6941 17.2479 22.3505 17.1239C22.0084 17.0005 21.6555 16.8092 21.2117 16.5686L21.145 16.5324C20.7088 16.296 20.1684 16.0058 19.6034 15.8372C19.0144 15.6615 18.3159 15.5915 17.591 15.8774C16.4581 16.3243 15.8805 17.354 15.5935 18.2724C15.3005 19.2099 15.2373 20.2436 15.2781 21.0741C15.3097 21.7153 15.5567 22.2557 15.8221 22.6858C16.0503 23.0557 16.3345 23.4074 16.5666 23.6947L16.6026 23.7392C16.6201 23.7609 16.6373 23.7822 16.654 23.8031C17.245 24.5385 17.3721 24.8298 17.3358 25.0691C17.32 25.173 17.2518 25.3309 16.9976 25.5744C16.7557 25.806 16.4506 26.02 16.0637 26.2913L15.9516 26.37C15.5565 26.6476 15.0518 27.0068 14.6723 27.4485C14.2651 27.9226 13.9322 28.5734 14.0308 29.3968C14.1223 30.1607 14.5524 30.6829 15.0548 31.0174C15.5096 31.3203 16.0512 31.4896 16.4826 31.61C16.6549 31.6581 16.8111 31.699 16.9577 31.7373L16.9581 31.7374L16.9583 31.7375C17.2328 31.8093 17.4737 31.8724 17.7236 31.9574C18.089 32.0816 18.2941 32.1998 18.4059 32.3078C18.6426 32.5364 18.7675 32.8976 19.0077 33.638L19.0167 33.6657C19.2125 34.2696 19.5242 35.231 20.369 35.8383C20.8571 36.1892 21.397 36.4178 21.9508 36.558C21.6465 36.6405 21.348 36.7251 21.0578 36.8073C20.6351 36.9271 20.2301 37.0419 19.8504 37.1379C18.2137 37.5518 16.8886 37.6867 15.6847 37.1338C12.8409 35.8277 10.9054 32.6843 10.143 29.3869C9.46065 26.4357 10.4972 23.3146 11.9691 20.2631C13.213 17.684 15.1287 15.5255 17.5771 14.0963ZM34.5863 23.6382C34.1945 23.3442 33.7392 23.0024 33.3724 22.6641C33.1337 22.4439 32.8948 22.2584 32.6199 22.045L32.6197 22.0449C32.4912 21.9451 32.3548 21.8392 32.2069 21.7208C31.7783 21.3778 31.2977 20.9605 30.9034 20.4131C30.4525 19.787 30.2068 19.033 30.0244 18.473L30.0238 18.4712L30.0236 18.4705C29.9976 18.3908 29.9729 18.315 29.9491 18.2441C29.7281 17.5868 29.5515 17.2136 29.2795 16.9731C28.8506 16.5941 28.3356 16.2528 27.8242 16.0512C27.308 15.8478 26.8851 15.8199 26.5642 15.9209C26.5055 15.9394 26.4077 15.9915 26.2595 16.1951C26.0998 16.4145 25.9596 16.6967 25.765 17.0918L25.7576 17.1069C25.5847 17.4579 25.3586 17.9169 25.0579 18.3071C24.7378 18.7225 24.2731 19.1415 23.5935 19.3041C22.8629 19.4788 22.1839 19.3419 21.6232 19.1396C21.1215 18.9585 20.6313 18.6921 20.2273 18.4725L20.1242 18.4165C19.6628 18.1665 19.3105 17.986 18.9909 17.8907C18.6953 17.8025 18.5174 17.8156 18.3772 17.8709C18.1169 17.9735 17.8398 18.2683 17.6388 18.9116C17.4437 19.5358 17.3855 20.301 17.4184 20.9688C17.4255 21.113 17.4832 21.2971 17.6457 21.5605C17.6855 21.6251 17.7282 21.6892 17.7739 21.7541C17.8657 21.5396 17.9997 21.3513 18.1567 21.1952C18.4773 20.8766 18.8843 20.6932 19.2166 20.5813C19.8944 20.3529 20.6879 20.2834 21.2245 20.2895C21.7227 20.2952 22.1393 20.4674 22.4546 20.6429C22.7251 20.7934 22.9818 20.9832 23.1725 21.1242L23.174 21.1252L23.1744 21.1256L23.1789 21.1289C23.1994 21.144 23.219 21.1585 23.2379 21.1724C23.3639 21.265 23.4634 21.3332 23.5417 21.3833C23.5473 21.3622 23.5532 21.3401 23.5594 21.3167L23.5676 21.2858C23.6199 21.0876 23.711 20.7422 23.8747 20.4513C24.0769 20.0921 24.5137 19.6151 25.2542 19.644C25.8013 19.6654 26.2125 19.9327 26.4843 20.2591C26.7226 20.5451 26.8567 20.8776 26.9391 21.1072C26.9835 21.231 27.0232 21.3557 27.0569 21.4626L27.0674 21.4959L27.0675 21.4961C27.0985 21.5944 27.1248 21.6779 27.1525 21.7587C27.2178 21.9493 27.2604 22.0297 27.2805 22.0583C27.4048 22.2351 27.5427 22.373 27.748 22.5785C27.8162 22.6467 27.8919 22.7224 27.977 22.8094C28.0779 22.9126 28.1651 23.017 28.2296 23.0953L28.2728 23.1477L28.2731 23.1481C28.3211 23.2066 28.3549 23.2476 28.3915 23.2889C28.4254 23.327 28.4476 23.3482 28.4593 23.3588C28.5448 23.3863 28.7198 23.4152 29.0331 23.4248C29.1928 23.4297 29.3611 23.4294 29.5474 23.4287L29.576 23.4286H29.5762C29.748 23.4279 29.937 23.4272 30.1196 23.432C30.4624 23.4411 30.9739 23.4686 31.4106 23.6675C31.6537 23.7782 31.9314 23.967 32.1278 24.2856C32.3287 24.6115 32.3791 24.9667 32.3491 25.2888C32.3143 25.6625 32.1687 26.01 31.9068 26.289C31.6607 26.5512 31.3673 26.694 31.1237 26.7768C30.6806 26.9273 30.1607 26.9523 29.8099 26.9691L29.7489 26.972C29.627 26.9779 29.5166 26.9832 29.4158 26.9891C29.6017 27.1443 29.8229 27.3428 29.9948 27.5614C30.2545 27.8916 30.5899 28.5189 30.2699 29.2577C30.1305 29.5793 29.8727 29.8653 29.4937 30.0075C29.1593 30.133 28.8478 30.1013 28.6539 30.063C28.316 29.9961 27.967 29.8248 27.7632 29.7249C27.7499 29.7184 27.7372 29.7121 27.7252 29.7063L27.7138 29.7007C27.7211 29.8455 27.7387 30.0172 27.7618 30.2353L27.7639 30.2557C27.7969 30.5674 27.8427 30.9999 27.8013 31.4191C27.7565 31.8736 27.601 32.4187 27.1423 32.863C26.3406 33.6397 25.2952 33.3296 24.7808 33.0838C24.1937 32.8031 23.6291 32.322 23.2945 31.8119C22.7983 31.0553 22.8536 30.1705 22.8849 29.6713C22.8863 29.648 22.8877 29.6255 22.889 29.6039C22.9015 29.3954 22.9085 29.2326 22.9097 29.1033C22.8367 29.1126 22.76 29.1194 22.6837 29.1215C22.4176 29.1285 21.9462 29.0854 21.5601 28.7013C20.9923 28.1365 21.0963 27.4045 21.1316 27.1614C21.1426 27.0854 21.1558 27.0107 21.1659 26.9532L21.1671 26.9463C21.1784 26.8822 21.1864 26.8364 21.1925 26.794C21.1995 26.7461 21.2009 26.7214 21.2014 26.7136C21.187 26.5982 21.1784 26.4827 21.172 26.397L21.1701 26.3711C21.1623 26.2674 21.1565 26.2006 21.1481 26.144C21.1468 26.1349 21.1455 26.1268 21.1442 26.1197C21.1435 26.1157 21.1429 26.1119 21.1422 26.1085C20.9989 25.9567 20.8003 25.8027 20.5316 25.6286C20.3404 25.5047 20.1884 25.415 20.0213 25.3164L20.021 25.3162C19.8801 25.2331 19.7286 25.1436 19.5339 25.0221C19.5174 25.0118 19.5008 25.0014 19.484 24.9908C19.4844 25.121 19.4751 25.2545 19.4543 25.3911C19.3382 26.1549 18.9017 26.7178 18.4798 27.1219C18.1114 27.4748 17.6661 27.786 17.3059 28.0377L17.3053 28.038C17.2635 28.0673 17.2228 28.0957 17.1836 28.1233C16.7605 28.4205 16.4765 28.6368 16.2979 28.8448C16.1471 29.0203 16.1526 29.0935 16.1584 29.142C16.1586 29.1435 16.1585 29.1451 16.1583 29.1469C16.1573 29.1583 16.1558 29.1761 16.2425 29.2338C16.3899 29.332 16.6398 29.4291 17.0586 29.546C17.1611 29.5746 17.2797 29.6058 17.4074 29.6393C17.7216 29.7219 18.0912 29.819 18.4135 29.9286C18.8848 30.0889 19.4444 30.3317 19.8947 30.7666C20.5425 31.3923 20.8193 32.2639 21.0001 32.8332C21.0161 32.8835 21.0313 32.9315 21.046 32.9767C21.2716 33.672 21.4146 33.9509 21.6197 34.0983C22.321 34.6024 23.43 34.7009 24.6216 34.5237C25.0172 34.4648 25.4129 34.2789 25.9106 33.9742C26.0339 33.8987 26.1737 33.8086 26.3245 33.7113L26.3251 33.7109L26.3256 33.7107C26.7077 33.4644 27.1607 33.1723 27.5968 32.9556C27.8636 32.8231 28.099 32.6934 28.3535 32.5533L28.3536 32.5532L28.3538 32.5531C28.5208 32.4612 28.696 32.3647 28.8936 32.26C29.3543 32.0157 29.8704 31.7651 30.445 31.587C31.1127 31.38 31.8261 31.3279 32.3897 31.2868C32.4853 31.2798 32.5766 31.2732 32.6626 31.2661C33.3234 31.212 33.7769 31.1355 34.1456 30.9337C35.3303 30.2852 36.284 29.4645 36.6077 28.5108C36.9317 27.5567 36.7071 26.3033 36.14 25.18C35.9339 24.7718 35.5857 24.418 35.0777 24.0135C34.938 23.9022 34.7691 23.7755 34.5864 23.6383L34.5863 23.6382ZM25.2743 22.8373C25.0924 23.147 24.7517 23.5413 24.1553 23.6376C23.1804 23.7951 22.4014 23.219 22.0154 22.9334L21.9847 22.9108L21.9119 22.8571C21.6987 22.7003 21.5556 22.5949 21.4125 22.5152C21.2696 22.4357 21.2109 22.4323 21.2001 22.4322C20.8202 22.4279 20.2937 22.4831 19.9168 22.6067C20.0426 22.7675 20.2688 22.9548 20.6685 23.2043C20.7604 23.2617 20.8903 23.3392 21.0327 23.4242L21.0334 23.4246L21.0337 23.4248C21.2563 23.5576 21.5095 23.7088 21.6969 23.8303C22.06 24.0655 22.4646 24.3615 22.8033 24.751C23.1297 25.1265 23.2271 25.5534 23.2681 25.8315C23.289 25.9734 23.2995 26.111 23.307 26.2108L23.3079 26.2234C23.3158 26.3285 23.3207 26.3941 23.3285 26.4543C23.3475 26.602 23.3471 26.7421 23.3391 26.8638C23.4061 26.8598 23.4757 26.8588 23.5454 26.8626C23.8899 26.8811 24.3977 27.0275 24.6989 27.5549C25.122 28.2957 25.0663 29.1457 25.0343 29.6337L25.0342 29.6352C25.032 29.6694 25.0299 29.7018 25.028 29.7323C24.9901 30.3641 25.0221 30.5387 25.0863 30.6366C25.1292 30.7019 25.2128 30.8003 25.3354 30.9051C25.4455 30.9992 25.5641 31.0789 25.6739 31.135C25.6807 30.973 25.6631 30.7664 25.6308 30.4604L25.6247 30.4033C25.5925 30.1016 25.5488 29.6915 25.5762 29.2958C25.6068 28.8544 25.7309 28.3104 26.1441 27.8441C26.3665 27.5931 26.6206 27.4608 26.8668 27.398C26.8105 27.2807 26.7624 27.1473 26.734 26.9986C26.6682 26.6541 26.7229 26.3021 26.8967 25.9848C27.0671 25.6739 27.2983 25.4543 27.5429 25.298C27.1862 25.1318 26.9428 24.8843 26.7904 24.7131C26.723 24.6373 26.656 24.5556 26.6058 24.4944L26.6056 24.4941L26.6053 24.4938L26.6052 24.4937L26.5897 24.4748L26.5764 24.4586C26.5165 24.386 26.4779 24.3413 26.4447 24.3074C26.4041 24.2658 26.3574 24.2194 26.3065 24.1689C26.0802 23.944 25.77 23.6357 25.5273 23.2904C25.4233 23.1424 25.3407 22.9859 25.2743 22.8373ZM30.447 24.743C30.447 24.7431 30.4462 24.7434 30.4445 24.7441C30.4461 24.7434 30.4469 24.743 30.447 24.743ZM25.6407 31.3381C25.6405 31.3378 25.6416 31.3353 25.6445 31.3316C25.6423 31.3366 25.6409 31.3384 25.6407 31.3381ZM23.8139 21.5221C23.8143 21.5221 23.8145 21.5221 23.8145 21.5221L23.8139 21.5221ZM28.7794 26.4365C28.7795 26.4365 28.7803 26.4376 28.7816 26.4396C28.7801 26.4375 28.7794 26.4365 28.7794 26.4365ZM28.7051 27.0987C28.7019 27.1008 28.7 27.1018 28.6999 27.1017C28.6998 27.1017 28.7002 27.1014 28.7013 27.1008C28.7021 27.1003 28.7034 27.0996 28.7051 27.0987Z" fill="#0176FF"/>
<path fill-rule="evenodd" clip-rule="evenodd" d="M3.07143 25.2157C3.07143 13.1857 13.1047 3.5 25.398 3.5C37.6443 3.5 47.5 13.2605 47.5 25.2157C47.5 37.0808 37.492 46.5 25.398 46.5C13.2566 46.5 3.07143 37.156 3.07143 25.2157ZM25.398 5.64286C14.2279 5.64286 5.21429 14.4286 5.21429 25.2157C5.21429 35.8556 14.3196 44.3571 25.398 44.3571C36.3987 44.3571 45.3571 35.8092 45.3571 25.2157C45.3571 14.4741 36.4912 5.64286 25.398 5.64286Z" fill="#0176FF"/>
<path fill-rule="evenodd" clip-rule="evenodd" d="M0 10C0 4.47715 4.47715 0 10 0H40C45.5229 0 50 4.47715 50 10V40C50 45.5229 45.5229 50 40 50H10C4.47715 50 0 45.5229 0 40V10ZM10 2.14286H40C44.3394 2.14286 47.8571 5.66062 47.8571 10V40C47.8571 44.3394 44.3394 47.8571 40 47.8571H10C5.66062 47.8571 2.14286 44.3394 2.14286 40V10C2.14286 5.66062 5.66062 2.14286 10 2.14286Z" fill="#0176FF"/>
</svg>
