<svg width="117" height="30" viewBox="0 0 117 30" fill="none" xmlns="http://www.w3.org/2000/svg">
<path d="M34.882 10.66H37.388V15.252H39.138V10.66H41.658V22H39.138V17.044H37.388V22H34.882V10.66ZM45.9609 22.168C45.1116 22.168 44.4396 22.0327 43.9449 21.762C43.4503 21.482 43.1003 21.076 42.8949 20.544C42.6989 20.0027 42.6009 19.3167 42.6009 18.486V10.66H45.0789V18.864C45.0789 19.3213 45.1349 19.6853 45.2469 19.956C45.3683 20.2267 45.6063 20.362 45.9609 20.362C46.3156 20.362 46.5489 20.2267 46.6609 19.956C46.7729 19.6853 46.8289 19.3213 46.8289 18.864V10.66H49.3209V18.486C49.3209 19.3167 49.2183 20.0027 49.0129 20.544C48.8076 21.076 48.4576 21.482 47.9629 21.762C47.4776 22.0327 46.8103 22.168 45.9609 22.168ZM50.2154 10.66H51.9794L54.3034 16.12V10.66H56.3754V22H54.6814L52.3574 16.12V22H50.2154V10.66ZM60.317 22.168C59.197 22.168 58.399 21.8273 57.923 21.146C57.447 20.4647 57.209 19.4987 57.209 18.248V14.44C57.209 13.1613 57.4657 12.186 57.979 11.514C58.5017 10.842 59.379 10.506 60.611 10.506C61.7964 10.506 62.6457 10.7953 63.159 11.374C63.6724 11.9527 63.929 12.7693 63.929 13.824V14.552H61.479V13.628C61.479 13.18 61.4277 12.844 61.325 12.62C61.2224 12.3867 60.9937 12.27 60.639 12.27C60.275 12.27 60.037 12.396 59.925 12.648C59.8224 12.9 59.771 13.25 59.771 13.698V18.948C59.771 19.396 59.8364 19.7507 59.967 20.012C60.107 20.264 60.3544 20.39 60.709 20.39C61.3624 20.39 61.689 19.9 61.689 18.92V17.59H60.667V16.12H63.943V22H62.291L62.151 21.062C61.7964 21.7993 61.185 22.168 60.317 22.168ZM64.8115 10.66H69.9075V12.368H67.3175V15.182H69.2915V16.918H67.3175V20.306H69.9355V22H64.8115V10.66ZM70.3732 10.66H73.4952C74.7365 10.66 75.6745 10.8793 76.3092 11.318C76.9439 11.7567 77.2612 12.536 77.2612 13.656C77.2612 14.412 77.1632 15.014 76.9672 15.462C76.7712 15.91 76.4072 16.26 75.8752 16.512L77.4292 22H74.8392L73.5932 16.918H72.8792V22H70.3732V10.66ZM73.5792 15.476C74.0832 15.476 74.4332 15.3453 74.6292 15.084C74.8345 14.8133 74.9372 14.412 74.9372 13.88C74.9372 13.3667 74.8439 12.984 74.6572 12.732C74.4705 12.4707 74.1485 12.34 73.6912 12.34H72.8792V15.476H73.5792ZM81.2064 22.168C79.9744 22.168 79.097 21.846 78.5744 21.202C78.061 20.5487 77.8044 19.6107 77.8044 18.388V14.3C77.8044 13.0493 78.061 12.1067 78.5744 11.472C79.0877 10.828 79.965 10.506 81.2064 10.506C82.3917 10.506 83.2317 10.7907 83.7264 11.36C84.221 11.9293 84.4684 12.7367 84.4684 13.782V14.762H82.0184V13.628C82.0184 13.1893 81.9717 12.8533 81.8784 12.62C81.785 12.3867 81.561 12.27 81.2064 12.27C80.8517 12.27 80.6184 12.396 80.5064 12.648C80.3944 12.8907 80.3384 13.2313 80.3384 13.67V19.004C80.3384 19.452 80.3944 19.7973 80.5064 20.04C80.6277 20.2733 80.861 20.39 81.2064 20.39C81.5517 20.39 81.771 20.2733 81.8644 20.04C81.967 19.7973 82.0184 19.452 82.0184 19.004V17.814H84.4684V18.794C84.4684 19.858 84.221 20.6887 83.7264 21.286C83.2317 21.874 82.3917 22.168 81.2064 22.168ZM88.395 22.168C87.1724 22.168 86.2997 21.8553 85.777 21.23C85.2544 20.5953 84.993 19.662 84.993 18.43V14.216C84.993 12.984 85.2544 12.06 85.777 11.444C86.2997 10.8187 87.1724 10.506 88.395 10.506C89.627 10.506 90.5044 10.8187 91.027 11.444C91.559 12.0693 91.825 12.9933 91.825 14.216V18.43C91.825 19.662 91.559 20.5953 91.027 21.23C90.5044 21.8553 89.627 22.168 88.395 22.168ZM88.395 20.39C88.7497 20.39 88.983 20.2733 89.095 20.04C89.207 19.7973 89.263 19.4707 89.263 19.06V13.6C89.263 13.18 89.207 12.8533 89.095 12.62C88.983 12.3867 88.7497 12.27 88.395 12.27C88.059 12.27 87.835 12.3913 87.723 12.634C87.611 12.8673 87.555 13.1893 87.555 13.6V19.06C87.555 19.4707 87.6064 19.7973 87.709 20.04C87.8117 20.2733 88.0404 20.39 88.395 20.39ZM92.6502 10.66H95.5202C96.5002 10.66 97.2655 10.7813 97.8162 11.024C98.3668 11.2667 98.7542 11.6493 98.9782 12.172C99.2115 12.6853 99.3282 13.376 99.3282 14.244V18.36C99.3282 19.2373 99.2115 19.9373 98.9782 20.46C98.7542 20.9827 98.3668 21.37 97.8162 21.622C97.2748 21.874 96.5188 22 95.5482 22H92.6502V10.66ZM95.5482 20.264C95.9122 20.264 96.1782 20.2127 96.3462 20.11C96.5235 19.998 96.6355 19.844 96.6822 19.648C96.7288 19.4427 96.7522 19.144 96.7522 18.752V13.81C96.7522 13.446 96.7242 13.1707 96.6682 12.984C96.6215 12.788 96.5095 12.6433 96.3322 12.55C96.1642 12.4567 95.8982 12.41 95.5342 12.41H95.1562V20.264H95.5482ZM100.153 10.66H105.249V12.368H102.659V15.182H104.633V16.918H102.659V20.306H105.277V22H100.153V10.66ZM108.725 22.168C107.642 22.168 106.835 21.8833 106.303 21.314C105.78 20.7353 105.5 19.8207 105.463 18.57L107.605 18.248C107.614 18.9667 107.698 19.4847 107.857 19.802C108.025 20.11 108.272 20.264 108.599 20.264C109.019 20.264 109.229 19.9887 109.229 19.438C109.229 18.9993 109.126 18.6213 108.921 18.304C108.725 17.9867 108.412 17.646 107.983 17.282L107.003 16.428C106.518 16.0173 106.14 15.5833 105.869 15.126C105.608 14.6593 105.477 14.1087 105.477 13.474C105.477 12.522 105.757 11.7893 106.317 11.276C106.886 10.7627 107.666 10.506 108.655 10.506C109.728 10.506 110.456 10.8187 110.839 11.444C111.231 12.0693 111.441 12.83 111.469 13.726L109.313 13.992C109.294 13.404 109.238 12.984 109.145 12.732C109.061 12.4707 108.87 12.34 108.571 12.34C108.356 12.34 108.188 12.4333 108.067 12.62C107.955 12.7973 107.899 12.998 107.899 13.222C107.899 13.6047 107.983 13.9267 108.151 14.188C108.328 14.4493 108.608 14.748 108.991 15.084L109.929 15.91C110.489 16.386 110.923 16.89 111.231 17.422C111.539 17.954 111.693 18.584 111.693 19.312C111.693 19.844 111.567 20.3293 111.315 20.768C111.072 21.1973 110.727 21.538 110.279 21.79C109.831 22.042 109.313 22.168 108.725 22.168Z" fill="#0176FF"/>
<path fill-rule="evenodd" clip-rule="evenodd" d="M15.1933 6.25911C13.3752 6.08615 11.5093 6.40684 9.89805 7.3474C8.19112 8.34384 6.8722 9.83947 6.02339 11.5993C5.12203 13.4681 4.31756 15.6919 4.83313 17.9218C5.34182 20.1218 6.67487 22.4386 8.87422 23.4487C10.0218 23.9757 11.1939 23.7901 12.2255 23.5292C12.5338 23.4512 12.8265 23.3684 13.1089 23.2885L13.109 23.2885L13.1091 23.2885C13.8321 23.0839 14.4879 22.8984 15.1674 22.8614C15.8016 22.8269 16.423 22.9228 17.1099 23.0288L17.11 23.0288C17.3597 23.0673 17.6181 23.1072 17.889 23.1426C18.8484 23.2681 19.9244 23.3234 20.9516 22.8133C22.9405 21.8254 24.4007 19.9062 24.9842 17.8062C25.5664 15.7104 25.1224 13.4464 24.0927 11.6069C23.5887 10.7066 22.8421 10.0791 22.0672 9.57237C21.6798 9.31909 21.2754 9.08977 20.8832 8.8721C20.8068 8.82965 20.7309 8.78775 20.6558 8.7462C20.3395 8.57141 20.0341 8.40265 19.7362 8.22449C19.5832 8.13305 19.4281 8.03838 19.2705 7.94223C18.0823 7.21721 16.7556 6.40772 15.1933 6.25911ZM10.5462 8.45777C11.8912 7.67263 13.4798 7.38763 15.0716 7.53904C16.3188 7.65769 17.3765 8.29889 18.5968 9.03866C18.7538 9.13378 18.9134 9.23053 19.0764 9.32801C19.395 9.51849 19.7241 9.70034 20.0417 9.87585L20.0426 9.87636C20.1155 9.91665 20.1878 9.95661 20.2593 9.99626C20.6482 10.2121 21.0178 10.4224 21.3635 10.6485C22.0547 11.1004 22.6099 11.5903 22.9708 12.235C23.8695 13.8404 24.2194 15.7557 23.7454 17.4621C23.2494 19.2471 22.0093 20.8524 20.3797 21.6618C19.7145 21.9921 18.9678 21.9871 18.0557 21.8678C17.8528 21.8412 17.6373 21.8078 17.413 21.773C16.9749 21.7052 16.5032 21.632 16.0255 21.5945C16.0922 21.5568 16.1563 21.5186 16.2177 21.481C16.3489 21.4007 16.4628 21.327 16.5684 21.2587C16.7656 21.1312 16.9338 21.0224 17.1303 20.9248C17.3078 20.8365 17.4979 20.7322 17.6719 20.6367L17.6721 20.6366L17.6722 20.6365L17.6727 20.6362L17.673 20.6361C17.7679 20.584 17.8579 20.5346 17.9384 20.4919C18.1895 20.3588 18.4166 20.2519 18.6476 20.1802C18.8964 20.1031 19.157 20.0832 19.4997 20.057C19.5643 20.0521 19.6317 20.0469 19.7026 20.0411C20.1089 20.0078 20.6241 19.9511 21.1047 19.688C21.8901 19.2581 22.8274 18.5645 23.1821 17.5198C23.5309 16.4925 23.2537 15.3643 22.8317 14.5285C22.5811 14.0321 22.1959 13.6797 21.8475 13.4023C21.6979 13.2831 21.5651 13.1841 21.442 13.0923C21.2447 12.9453 21.0722 12.8167 20.8951 12.6534C20.7098 12.4824 20.4979 12.3178 20.3148 12.1756L20.3147 12.1755C20.2476 12.1233 20.1843 12.0741 20.1276 12.0288C19.8951 11.8426 19.7175 11.6799 19.5853 11.4964C19.4401 11.2947 19.359 11.0507 19.2409 10.6949C19.2241 10.6445 19.2067 10.5919 19.1881 10.5368C19.0567 10.1458 18.8652 9.61479 18.4191 9.22051C18.078 8.91902 17.6433 8.6227 17.1659 8.43456C16.6914 8.24757 16.1204 8.14735 15.5525 8.32614C15.1607 8.44947 14.8973 8.7116 14.7162 8.96044C14.5517 9.1864 14.4231 9.44801 14.3231 9.6514L14.3056 9.68691C14.1908 9.92003 14.1076 10.081 14.0164 10.1995C13.9342 10.3061 13.8847 10.3254 13.857 10.332C13.7527 10.3569 13.6165 10.3487 13.4103 10.2743C13.205 10.2003 12.9933 10.0855 12.727 9.94114L12.687 9.91944C12.4253 9.77762 12.101 9.60345 11.762 9.50234C11.4086 9.39692 10.9895 9.35491 10.5546 9.52647C9.87487 9.79456 9.5283 10.4124 9.35608 10.9634C9.18029 11.5259 9.14237 12.1462 9.16687 12.6444C9.18579 13.0292 9.334 13.3534 9.49324 13.6115C9.63019 13.8334 9.80071 14.0445 9.93997 14.2168L9.96156 14.2435C9.97207 14.2566 9.98236 14.2693 9.99242 14.2818C10.347 14.7231 10.4233 14.8979 10.4015 15.0414C10.392 15.1038 10.3511 15.1985 10.1986 15.3446C10.0534 15.4836 9.87037 15.612 9.63822 15.7748L9.57097 15.822C9.33388 15.9886 9.03108 16.2041 8.80341 16.4691C8.55906 16.7536 8.3593 17.144 8.41846 17.6381C8.47335 18.0964 8.73143 18.4097 9.03286 18.6105C9.30574 18.7922 9.63074 18.8938 9.88955 18.966C9.99295 18.9948 10.0867 19.0194 10.1746 19.0424L10.1749 19.0425L10.175 19.0425C10.3397 19.0856 10.4842 19.1234 10.6341 19.1744C10.8534 19.249 10.9765 19.3199 11.0435 19.3847C11.1855 19.5218 11.2605 19.7386 11.4046 20.1828L11.41 20.1994C11.5275 20.5618 11.7145 21.1386 12.2214 21.503C12.5143 21.7135 12.8382 21.8507 13.1705 21.9348C12.9879 21.9843 12.8088 22.0351 12.6347 22.0844C12.3811 22.1563 12.1381 22.2251 11.9102 22.2827C10.9282 22.5311 10.1332 22.612 9.41083 22.2803C7.70452 21.4966 6.54325 19.6106 6.0858 17.6321C5.67639 15.8614 6.29833 13.9888 7.18144 12.1579C7.92781 10.6104 9.07724 9.31531 10.5462 8.45777ZM20.7518 14.1829C20.5167 14.0065 20.2435 13.8015 20.0234 13.5985C19.8802 13.4664 19.7369 13.3551 19.5719 13.227L19.5718 13.2269C19.4947 13.1671 19.4129 13.1035 19.3242 13.0325C19.067 12.8267 18.7786 12.5763 18.5421 12.2478C18.2715 11.8722 18.1241 11.4198 18.0146 11.0838L18.0143 11.0827L18.0142 11.0823C17.9986 11.0345 17.9837 10.989 17.9694 10.9464C17.8369 10.5521 17.7309 10.3282 17.5677 10.1839C17.3104 9.95647 17.0014 9.75165 16.6945 9.63074C16.3848 9.50868 16.1311 9.49191 15.9385 9.55252C15.9033 9.56361 15.8446 9.59489 15.7557 9.71706C15.6599 9.84873 15.5758 10.018 15.459 10.2551L15.4546 10.2641C15.3508 10.4747 15.2152 10.7502 15.0348 10.9843C14.8427 11.2335 14.5638 11.4849 14.1561 11.5824C13.7177 11.6873 13.3103 11.6051 12.9739 11.4837C12.6729 11.3751 12.3788 11.2152 12.1364 11.0835L12.0745 11.0499C11.7977 10.8999 11.5863 10.7916 11.3945 10.7344C11.2172 10.6815 11.1104 10.6893 11.0263 10.7225C10.8702 10.7841 10.7039 10.961 10.5833 11.347C10.4662 11.7215 10.4313 12.1806 10.451 12.5813C10.4553 12.6678 10.4899 12.7783 10.5874 12.9363C10.6113 12.975 10.6369 13.0135 10.6643 13.0525C10.7194 12.9238 10.7998 12.8108 10.894 12.7171C11.0864 12.5259 11.3306 12.4159 11.53 12.3488C11.9367 12.2118 12.4127 12.17 12.7347 12.1737C13.0336 12.1771 13.2836 12.2804 13.4728 12.3857C13.6351 12.4761 13.7891 12.5899 13.9035 12.6745L13.9044 12.6751L13.9047 12.6753L13.9073 12.6773C13.9196 12.6864 13.9314 12.6951 13.9427 12.7034C14.0183 12.759 14.0781 12.7999 14.125 12.83C14.1284 12.8173 14.1319 12.8041 14.1357 12.79L14.1406 12.7715C14.1719 12.6525 14.2266 12.4453 14.3248 12.2708C14.4462 12.0553 14.7082 11.7691 15.1525 11.7864C15.4808 11.7992 15.7275 11.9596 15.8906 12.1554C16.0336 12.3271 16.114 12.5266 16.1635 12.6643C16.1901 12.7386 16.2139 12.8134 16.2341 12.8775L16.2405 12.8976L16.2405 12.8977C16.2591 12.9566 16.2749 13.0067 16.2915 13.0552C16.3307 13.1696 16.3562 13.2178 16.3683 13.235C16.4429 13.3411 16.5256 13.4238 16.6488 13.5471C16.6897 13.588 16.7352 13.6334 16.7862 13.6857C16.8467 13.7476 16.899 13.8102 16.9378 13.8572L16.9637 13.8886L16.9638 13.8888C16.9927 13.9239 17.0129 13.9486 17.0349 13.9733C17.0553 13.9962 17.0685 14.0089 17.0756 14.0153C17.1269 14.0318 17.2319 14.0491 17.4199 14.0549C17.5157 14.0578 17.6167 14.0576 17.7284 14.0572L17.7456 14.0571H17.7457C17.8488 14.0568 17.9622 14.0563 18.0718 14.0592C18.2775 14.0647 18.5844 14.0812 18.8463 14.2005C18.9922 14.2669 19.1588 14.3802 19.2767 14.5714C19.3972 14.7669 19.4274 14.98 19.4095 15.1733C19.3886 15.3975 19.3012 15.606 19.1441 15.7734C18.9964 15.9307 18.8204 16.0164 18.6742 16.0661C18.4084 16.1564 18.0964 16.1714 17.8859 16.1815L17.8493 16.1832C17.7762 16.1867 17.71 16.1899 17.6495 16.1935C17.761 16.2866 17.8937 16.4057 17.9969 16.5368C18.1527 16.7349 18.354 17.1113 18.1619 17.5546C18.0783 17.7476 17.9236 17.9192 17.6962 18.0045C17.4956 18.0798 17.3087 18.0608 17.1923 18.0378C16.9896 17.9977 16.7802 17.8949 16.6579 17.8349C16.6499 17.831 16.6423 17.8273 16.6351 17.8238L16.6283 17.8204C16.6327 17.9073 16.6432 18.0103 16.6571 18.1412L16.6584 18.1534C16.6781 18.3404 16.7056 18.6 16.6808 18.8515C16.6539 19.1242 16.5606 19.4512 16.2854 19.7178C15.8044 20.1838 15.1771 19.9978 14.8685 19.8502C14.5162 19.6819 14.1775 19.3932 13.9767 19.0871C13.679 18.6332 13.7122 18.1023 13.7309 17.8028C13.7318 17.7888 13.7326 17.7753 13.7334 17.7624C13.7409 17.6372 13.7451 17.5395 13.7458 17.462C13.702 17.4675 13.656 17.4717 13.6102 17.4729C13.4505 17.4771 13.1677 17.4512 12.9361 17.2208C12.5954 16.8819 12.6578 16.4427 12.679 16.2968C12.6856 16.2512 12.6935 16.2064 12.6996 16.1719L12.7003 16.1678C12.7071 16.1293 12.7118 16.1019 12.7155 16.0764C12.7197 16.0476 12.7206 16.0329 12.7208 16.0281C12.7122 15.9589 12.707 15.8896 12.7032 15.8382L12.7021 15.8227C12.6974 15.7604 12.6939 15.7204 12.6889 15.6864C12.6881 15.6809 12.6873 15.6761 12.6865 15.6718C12.6861 15.6694 12.6857 15.6672 12.6853 15.6651C12.5993 15.574 12.4802 15.4816 12.319 15.3772C12.2043 15.3028 12.113 15.249 12.0128 15.1898L12.0126 15.1897C11.9281 15.1398 11.8372 15.0862 11.7203 15.0133C11.7104 15.0071 11.7005 15.0008 11.6904 14.9945C11.6906 15.0726 11.685 15.1527 11.6726 15.2346C11.6029 15.6929 11.341 16.0307 11.0879 16.2732C10.8668 16.4849 10.5996 16.6716 10.3835 16.8226L10.3832 16.8228C10.3581 16.8404 10.3337 16.8574 10.3101 16.874C10.0563 17.0523 9.88588 17.1821 9.77872 17.3069C9.68824 17.4122 9.69157 17.4561 9.69506 17.4852C9.69517 17.4861 9.69509 17.4871 9.695 17.4881C9.6944 17.495 9.69348 17.5057 9.74548 17.5403C9.83393 17.5992 9.98387 17.6575 10.2352 17.7276C10.2967 17.7448 10.3678 17.7635 10.4444 17.7836C10.633 17.8331 10.8547 17.8914 11.0481 17.9572C11.3309 18.0533 11.6667 18.199 11.9368 18.4599C12.3255 18.8354 12.4916 19.3584 12.6001 19.6999C12.6097 19.7301 12.6188 19.7589 12.6276 19.786C12.763 20.2032 12.8488 20.3705 12.9718 20.459C13.3926 20.7615 14.058 20.8206 14.7729 20.7142C15.0103 20.6789 15.2478 20.5673 15.5464 20.3845C15.6203 20.3392 15.7042 20.2852 15.7947 20.2268L15.7951 20.2266L15.7954 20.2264C16.0246 20.0786 16.2964 19.9034 16.5581 19.7734C16.7181 19.6938 16.8594 19.6161 17.0121 19.532L17.0122 19.5319L17.0123 19.5319C17.1125 19.4767 17.2176 19.4188 17.3361 19.356C17.6126 19.2094 17.9222 19.059 18.267 18.9522C18.6676 18.828 19.0957 18.7968 19.4338 18.7721C19.4912 18.7679 19.546 18.7639 19.5976 18.7597C19.9941 18.7272 20.2661 18.6813 20.4873 18.5602C21.1982 18.1711 21.7704 17.6787 21.9646 17.1065C22.159 16.534 22.0243 15.782 21.684 15.108C21.5603 14.8631 21.3514 14.6508 21.0466 14.4081C20.9628 14.3413 20.8615 14.2653 20.7519 14.183L20.7518 14.1829ZM15.1646 13.7024C15.0555 13.8882 14.851 14.1248 14.4932 14.1826C13.9083 14.2771 13.4409 13.9314 13.2092 13.76L13.1908 13.7465L13.1471 13.7143C13.0192 13.6202 12.9333 13.5569 12.8475 13.5091C12.7618 13.4614 12.7265 13.4594 12.7201 13.4593C12.4921 13.4567 12.1762 13.4899 11.9501 13.564C12.0256 13.6605 12.1613 13.7729 12.4011 13.9226C12.4562 13.957 12.5342 14.0035 12.6196 14.0545L12.62 14.0548L12.6202 14.0549C12.7538 14.1346 12.9057 14.2253 13.0182 14.2982C13.236 14.4393 13.4788 14.6169 13.682 14.8506C13.8778 15.0759 13.9363 15.3321 13.9609 15.4989C13.9734 15.584 13.9797 15.6666 13.9842 15.7265L13.9847 15.734C13.9895 15.7971 13.9924 15.8365 13.9971 15.8726C14.0085 15.9612 14.0083 16.0452 14.0034 16.1183C14.0436 16.1159 14.0854 16.1153 14.1273 16.1175C14.3339 16.1287 14.6386 16.2165 14.8194 16.5329C15.0732 16.9774 15.0398 17.4874 15.0206 17.7802L15.0205 17.7811C15.0192 17.8017 15.0179 17.8211 15.0168 17.8394C14.9941 18.2185 15.0132 18.3232 15.0518 18.382C15.0775 18.4211 15.1277 18.4802 15.2012 18.5431C15.2673 18.5995 15.3384 18.6473 15.4043 18.681C15.4084 18.5838 15.3979 18.4598 15.3785 18.2762L15.3748 18.242C15.3555 18.0609 15.3293 17.8149 15.3457 17.5775C15.3641 17.3126 15.4385 16.9863 15.6865 16.7064C15.8199 16.5559 15.9724 16.4765 16.1201 16.4388C16.0863 16.3684 16.0574 16.2884 16.0404 16.1992C16.0009 15.9925 16.0337 15.7813 16.138 15.5909C16.2403 15.4043 16.379 15.2726 16.5257 15.1788C16.3117 15.0791 16.1657 14.9306 16.0743 14.8278C16.0338 14.7824 15.9936 14.7334 15.9635 14.6967L15.9633 14.6965L15.9632 14.6963L15.9631 14.6962L15.9538 14.6849L15.9458 14.6752C15.9099 14.6316 15.8867 14.6048 15.8668 14.5844C15.8424 14.5595 15.8144 14.5317 15.7839 14.5013C15.6481 14.3664 15.462 14.1814 15.3164 13.9742C15.254 13.8854 15.2044 13.7915 15.1646 13.7024ZM18.2682 14.8458C18.2682 14.8458 18.2677 14.8461 18.2667 14.8465C18.2677 14.846 18.2682 14.8458 18.2682 14.8458ZM15.3844 18.8029C15.3843 18.8027 15.385 18.8012 15.3867 18.799C15.3854 18.8019 15.3845 18.8031 15.3844 18.8029ZM14.2883 12.9133C14.2886 12.9133 14.2887 12.9133 14.2887 12.9133L14.2883 12.9133ZM17.2677 15.8619C17.2677 15.8619 17.2682 15.8625 17.269 15.8638C17.268 15.8625 17.2676 15.8619 17.2677 15.8619ZM17.223 16.2592C17.2211 16.2605 17.22 16.2611 17.2199 16.261C17.2199 16.261 17.2201 16.2608 17.2208 16.2605C17.2213 16.2602 17.222 16.2597 17.223 16.2592Z" fill="#0176FF"/>
<path fill-rule="evenodd" clip-rule="evenodd" d="M1.84286 15.1294C1.84286 7.91143 7.86283 2.1 15.2388 2.1C22.5866 2.1 28.5 7.95633 28.5 15.1294C28.5 22.2485 22.4952 27.9 15.2388 27.9C7.95394 27.9 1.84286 22.2936 1.84286 15.1294ZM15.2388 3.38571C8.53674 3.38571 3.12857 8.65716 3.12857 15.1294C3.12857 21.5133 8.59175 26.6143 15.2388 26.6143C21.8392 26.6143 27.2143 21.4855 27.2143 15.1294C27.2143 8.68447 21.8947 3.38571 15.2388 3.38571Z" fill="#0176FF"/>
<path fill-rule="evenodd" clip-rule="evenodd" d="M0 6C0 2.68629 2.68629 0 6 0H24C27.3137 0 30 2.68629 30 6V24C30 27.3137 27.3137 30 24 30H6C2.68629 30 0 27.3137 0 24V6ZM6 1.28571H24C26.6036 1.28571 28.7143 3.39637 28.7143 6V24C28.7143 26.6036 26.6036 28.7143 24 28.7143H6C3.39637 28.7143 1.28571 26.6036 1.28571 24V6C1.28571 3.39637 3.39637 1.28571 6 1.28571Z" fill="#0176FF"/>
</svg>
